<mxfile host="app.diagrams.net" agent="Mozilla/5.0 (Windows NT 10.0; Win64; x64) AppleWebKit/537.36 (KHTML, like Gecko) Chrome/139.0.0.0 Safari/537.36" version="28.1.1">
  <diagram name="FÃ­sico - ECommerce" id="EmvX3uxujwh3oD94Rh_c">
    <mxGraphModel dx="1042" dy="527" grid="1" gridSize="10" guides="1" tooltips="1" connect="1" arrows="1" fold="1" page="1" pageScale="1" pageWidth="1169" pageHeight="827" math="0" shadow="0">
      <root>
        <mxCell id="j5QbGHPDWoWdgnvnqhMC-0" />
        <mxCell id="j5QbGHPDWoWdgnvnqhMC-1" parent="j5QbGHPDWoWdgnvnqhMC-0" />
        <mxCell id="j5QbGHPDWoWdgnvnqhMC-2" value="Pedido" style="shape=table;startSize=30;container=1;collapsible=1;childLayout=tableLayout;fixedRows=1;rowLines=0;fontStyle=1;align=center;resizeLast=1;html=1;" parent="j5QbGHPDWoWdgnvnqhMC-1" vertex="1">
          <mxGeometry x="440" y="447" width="230" height="170" as="geometry" />
        </mxCell>
        <mxCell id="j5QbGHPDWoWdgnvnqhMC-3" value="" style="shape=tableRow;horizontal=0;startSize=0;swimlaneHead=0;swimlaneBody=0;fillColor=none;collapsible=0;dropTarget=0;points=[[0,0.5],[1,0.5]];portConstraint=eastwest;top=0;left=0;right=0;bottom=1;" parent="j5QbGHPDWoWdgnvnqhMC-2" vertex="1">
          <mxGeometry y="30" width="230" height="30" as="geometry" />
        </mxCell>
        <mxCell id="j5QbGHPDWoWdgnvnqhMC-4" value="PK" style="shape=partialRectangle;connectable=0;fillColor=none;top=0;left=0;bottom=0;right=0;fontStyle=1;overflow=hidden;whiteSpace=wrap;html=1;" parent="j5QbGHPDWoWdgnvnqhMC-3" vertex="1">
          <mxGeometry width="30" height="30" as="geometry">
            <mxRectangle width="30" height="30" as="alternateBounds" />
          </mxGeometry>
        </mxCell>
        <mxCell id="j5QbGHPDWoWdgnvnqhMC-5" value="id_pedido INT" style="shape=partialRectangle;connectable=0;fillColor=none;top=0;left=0;bottom=0;right=0;align=left;spacingLeft=6;fontStyle=5;overflow=hidden;whiteSpace=wrap;html=1;" parent="j5QbGHPDWoWdgnvnqhMC-3" vertex="1">
          <mxGeometry x="30" width="200" height="30" as="geometry">
            <mxRectangle width="200" height="30" as="alternateBounds" />
          </mxGeometry>
        </mxCell>
        <mxCell id="j5QbGHPDWoWdgnvnqhMC-6" value="" style="shape=tableRow;horizontal=0;startSize=0;swimlaneHead=0;swimlaneBody=0;fillColor=none;collapsible=0;dropTarget=0;points=[[0,0.5],[1,0.5]];portConstraint=eastwest;top=0;left=0;right=0;bottom=0;" parent="j5QbGHPDWoWdgnvnqhMC-2" vertex="1">
          <mxGeometry y="60" width="230" height="30" as="geometry" />
        </mxCell>
        <mxCell id="j5QbGHPDWoWdgnvnqhMC-7" value="" style="shape=partialRectangle;connectable=0;fillColor=none;top=0;left=0;bottom=0;right=0;editable=1;overflow=hidden;whiteSpace=wrap;html=1;" parent="j5QbGHPDWoWdgnvnqhMC-6" vertex="1">
          <mxGeometry width="30" height="30" as="geometry">
            <mxRectangle width="30" height="30" as="alternateBounds" />
          </mxGeometry>
        </mxCell>
        <mxCell id="j5QbGHPDWoWdgnvnqhMC-8" value="cliente_id INT NOT NULL" style="shape=partialRectangle;connectable=0;fillColor=none;top=0;left=0;bottom=0;right=0;align=left;spacingLeft=6;overflow=hidden;whiteSpace=wrap;html=1;" parent="j5QbGHPDWoWdgnvnqhMC-6" vertex="1">
          <mxGeometry x="30" width="200" height="30" as="geometry">
            <mxRectangle width="200" height="30" as="alternateBounds" />
          </mxGeometry>
        </mxCell>
        <mxCell id="j5QbGHPDWoWdgnvnqhMC-9" value="" style="shape=tableRow;horizontal=0;startSize=0;swimlaneHead=0;swimlaneBody=0;fillColor=none;collapsible=0;dropTarget=0;points=[[0,0.5],[1,0.5]];portConstraint=eastwest;top=0;left=0;right=0;bottom=0;" parent="j5QbGHPDWoWdgnvnqhMC-2" vertex="1">
          <mxGeometry y="90" width="230" height="20" as="geometry" />
        </mxCell>
        <mxCell id="j5QbGHPDWoWdgnvnqhMC-10" value="" style="shape=partialRectangle;connectable=0;fillColor=none;top=0;left=0;bottom=0;right=0;editable=1;overflow=hidden;whiteSpace=wrap;html=1;" parent="j5QbGHPDWoWdgnvnqhMC-9" vertex="1">
          <mxGeometry width="30" height="20" as="geometry">
            <mxRectangle width="30" height="20" as="alternateBounds" />
          </mxGeometry>
        </mxCell>
        <mxCell id="j5QbGHPDWoWdgnvnqhMC-11" value="data_pedido TIMESTAMP WITH TIMES ZONE" style="shape=partialRectangle;connectable=0;fillColor=none;top=0;left=0;bottom=0;right=0;align=left;spacingLeft=6;overflow=hidden;whiteSpace=wrap;html=1;" parent="j5QbGHPDWoWdgnvnqhMC-9" vertex="1">
          <mxGeometry x="30" width="200" height="20" as="geometry">
            <mxRectangle width="200" height="20" as="alternateBounds" />
          </mxGeometry>
        </mxCell>
        <mxCell id="j5QbGHPDWoWdgnvnqhMC-12" value="" style="shape=tableRow;horizontal=0;startSize=0;swimlaneHead=0;swimlaneBody=0;fillColor=none;collapsible=0;dropTarget=0;points=[[0,0.5],[1,0.5]];portConstraint=eastwest;top=0;left=0;right=0;bottom=0;" parent="j5QbGHPDWoWdgnvnqhMC-2" vertex="1">
          <mxGeometry y="110" width="230" height="30" as="geometry" />
        </mxCell>
        <mxCell id="j5QbGHPDWoWdgnvnqhMC-13" value="" style="shape=partialRectangle;connectable=0;fillColor=none;top=0;left=0;bottom=0;right=0;editable=1;overflow=hidden;whiteSpace=wrap;html=1;" parent="j5QbGHPDWoWdgnvnqhMC-12" vertex="1">
          <mxGeometry width="30" height="30" as="geometry">
            <mxRectangle width="30" height="30" as="alternateBounds" />
          </mxGeometry>
        </mxCell>
        <mxCell id="j5QbGHPDWoWdgnvnqhMC-14" value="valor_total NUMERIC(5,4)" style="shape=partialRectangle;connectable=0;fillColor=none;top=0;left=0;bottom=0;right=0;align=left;spacingLeft=6;overflow=hidden;whiteSpace=wrap;html=1;" parent="j5QbGHPDWoWdgnvnqhMC-12" vertex="1">
          <mxGeometry x="30" width="200" height="30" as="geometry">
            <mxRectangle width="200" height="30" as="alternateBounds" />
          </mxGeometry>
        </mxCell>
        <mxCell id="j5QbGHPDWoWdgnvnqhMC-15" value="" style="shape=tableRow;horizontal=0;startSize=0;swimlaneHead=0;swimlaneBody=0;fillColor=none;collapsible=0;dropTarget=0;points=[[0,0.5],[1,0.5]];portConstraint=eastwest;top=0;left=0;right=0;bottom=0;" parent="j5QbGHPDWoWdgnvnqhMC-2" vertex="1">
          <mxGeometry y="140" width="230" height="30" as="geometry" />
        </mxCell>
        <mxCell id="j5QbGHPDWoWdgnvnqhMC-16" value="" style="shape=partialRectangle;connectable=0;fillColor=none;top=0;left=0;bottom=0;right=0;editable=1;overflow=hidden;whiteSpace=wrap;html=1;" parent="j5QbGHPDWoWdgnvnqhMC-15" vertex="1">
          <mxGeometry width="30" height="30" as="geometry">
            <mxRectangle width="30" height="30" as="alternateBounds" />
          </mxGeometry>
        </mxCell>
        <mxCell id="j5QbGHPDWoWdgnvnqhMC-17" value="status TEXT NOT NULL" style="shape=partialRectangle;connectable=0;fillColor=none;top=0;left=0;bottom=0;right=0;align=left;spacingLeft=6;overflow=hidden;whiteSpace=wrap;html=1;" parent="j5QbGHPDWoWdgnvnqhMC-15" vertex="1">
          <mxGeometry x="30" width="200" height="30" as="geometry">
            <mxRectangle width="200" height="30" as="alternateBounds" />
          </mxGeometry>
        </mxCell>
        <mxCell id="j5QbGHPDWoWdgnvnqhMC-18" value="Produto" style="shape=table;startSize=30;container=1;collapsible=1;childLayout=tableLayout;fixedRows=1;rowLines=0;fontStyle=1;align=center;resizeLast=1;html=1;" parent="j5QbGHPDWoWdgnvnqhMC-1" vertex="1">
          <mxGeometry x="400" y="171" width="260" height="210" as="geometry" />
        </mxCell>
        <mxCell id="j5QbGHPDWoWdgnvnqhMC-19" value="" style="shape=tableRow;horizontal=0;startSize=0;swimlaneHead=0;swimlaneBody=0;fillColor=none;collapsible=0;dropTarget=0;points=[[0,0.5],[1,0.5]];portConstraint=eastwest;top=0;left=0;right=0;bottom=1;" parent="j5QbGHPDWoWdgnvnqhMC-18" vertex="1">
          <mxGeometry y="30" width="260" height="30" as="geometry" />
        </mxCell>
        <mxCell id="j5QbGHPDWoWdgnvnqhMC-20" value="PK" style="shape=partialRectangle;connectable=0;fillColor=none;top=0;left=0;bottom=0;right=0;fontStyle=1;overflow=hidden;whiteSpace=wrap;html=1;" parent="j5QbGHPDWoWdgnvnqhMC-19" vertex="1">
          <mxGeometry width="30" height="30" as="geometry">
            <mxRectangle width="30" height="30" as="alternateBounds" />
          </mxGeometry>
        </mxCell>
        <mxCell id="j5QbGHPDWoWdgnvnqhMC-21" value="id_produto INT" style="shape=partialRectangle;connectable=0;fillColor=none;top=0;left=0;bottom=0;right=0;align=left;spacingLeft=6;fontStyle=5;overflow=hidden;whiteSpace=wrap;html=1;" parent="j5QbGHPDWoWdgnvnqhMC-19" vertex="1">
          <mxGeometry x="30" width="230" height="30" as="geometry">
            <mxRectangle width="230" height="30" as="alternateBounds" />
          </mxGeometry>
        </mxCell>
        <mxCell id="j5QbGHPDWoWdgnvnqhMC-22" value="" style="shape=tableRow;horizontal=0;startSize=0;swimlaneHead=0;swimlaneBody=0;fillColor=none;collapsible=0;dropTarget=0;points=[[0,0.5],[1,0.5]];portConstraint=eastwest;top=0;left=0;right=0;bottom=0;" parent="j5QbGHPDWoWdgnvnqhMC-18" vertex="1">
          <mxGeometry y="60" width="260" height="30" as="geometry" />
        </mxCell>
        <mxCell id="j5QbGHPDWoWdgnvnqhMC-23" value="" style="shape=partialRectangle;connectable=0;fillColor=none;top=0;left=0;bottom=0;right=0;editable=1;overflow=hidden;whiteSpace=wrap;html=1;" parent="j5QbGHPDWoWdgnvnqhMC-22" vertex="1">
          <mxGeometry width="30" height="30" as="geometry">
            <mxRectangle width="30" height="30" as="alternateBounds" />
          </mxGeometry>
        </mxCell>
        <mxCell id="j5QbGHPDWoWdgnvnqhMC-24" value="nome_produto TEXT NOT NULL" style="shape=partialRectangle;connectable=0;fillColor=none;top=0;left=0;bottom=0;right=0;align=left;spacingLeft=6;overflow=hidden;whiteSpace=wrap;html=1;" parent="j5QbGHPDWoWdgnvnqhMC-22" vertex="1">
          <mxGeometry x="30" width="230" height="30" as="geometry">
            <mxRectangle width="230" height="30" as="alternateBounds" />
          </mxGeometry>
        </mxCell>
        <mxCell id="j5QbGHPDWoWdgnvnqhMC-25" value="" style="shape=tableRow;horizontal=0;startSize=0;swimlaneHead=0;swimlaneBody=0;fillColor=none;collapsible=0;dropTarget=0;points=[[0,0.5],[1,0.5]];portConstraint=eastwest;top=0;left=0;right=0;bottom=0;" parent="j5QbGHPDWoWdgnvnqhMC-18" vertex="1">
          <mxGeometry y="90" width="260" height="30" as="geometry" />
        </mxCell>
        <mxCell id="j5QbGHPDWoWdgnvnqhMC-26" value="" style="shape=partialRectangle;connectable=0;fillColor=none;top=0;left=0;bottom=0;right=0;editable=1;overflow=hidden;whiteSpace=wrap;html=1;" parent="j5QbGHPDWoWdgnvnqhMC-25" vertex="1">
          <mxGeometry width="30" height="30" as="geometry">
            <mxRectangle width="30" height="30" as="alternateBounds" />
          </mxGeometry>
        </mxCell>
        <mxCell id="j5QbGHPDWoWdgnvnqhMC-27" value="descricao TEXT NOT NULL" style="shape=partialRectangle;connectable=0;fillColor=none;top=0;left=0;bottom=0;right=0;align=left;spacingLeft=6;overflow=hidden;whiteSpace=wrap;html=1;" parent="j5QbGHPDWoWdgnvnqhMC-25" vertex="1">
          <mxGeometry x="30" width="230" height="30" as="geometry">
            <mxRectangle width="230" height="30" as="alternateBounds" />
          </mxGeometry>
        </mxCell>
        <mxCell id="j5QbGHPDWoWdgnvnqhMC-28" value="" style="shape=tableRow;horizontal=0;startSize=0;swimlaneHead=0;swimlaneBody=0;fillColor=none;collapsible=0;dropTarget=0;points=[[0,0.5],[1,0.5]];portConstraint=eastwest;top=0;left=0;right=0;bottom=0;" parent="j5QbGHPDWoWdgnvnqhMC-18" vertex="1">
          <mxGeometry y="120" width="260" height="30" as="geometry" />
        </mxCell>
        <mxCell id="j5QbGHPDWoWdgnvnqhMC-29" value="" style="shape=partialRectangle;connectable=0;fillColor=none;top=0;left=0;bottom=0;right=0;editable=1;overflow=hidden;whiteSpace=wrap;html=1;" parent="j5QbGHPDWoWdgnvnqhMC-28" vertex="1">
          <mxGeometry width="30" height="30" as="geometry">
            <mxRectangle width="30" height="30" as="alternateBounds" />
          </mxGeometry>
        </mxCell>
        <mxCell id="j5QbGHPDWoWdgnvnqhMC-30" value="preco NUMERIC(5,4) NOT NULL" style="shape=partialRectangle;connectable=0;fillColor=none;top=0;left=0;bottom=0;right=0;align=left;spacingLeft=6;overflow=hidden;whiteSpace=wrap;html=1;" parent="j5QbGHPDWoWdgnvnqhMC-28" vertex="1">
          <mxGeometry x="30" width="230" height="30" as="geometry">
            <mxRectangle width="230" height="30" as="alternateBounds" />
          </mxGeometry>
        </mxCell>
        <mxCell id="j5QbGHPDWoWdgnvnqhMC-31" value="" style="shape=tableRow;horizontal=0;startSize=0;swimlaneHead=0;swimlaneBody=0;fillColor=none;collapsible=0;dropTarget=0;points=[[0,0.5],[1,0.5]];portConstraint=eastwest;top=0;left=0;right=0;bottom=0;" parent="j5QbGHPDWoWdgnvnqhMC-18" vertex="1">
          <mxGeometry y="150" width="260" height="30" as="geometry" />
        </mxCell>
        <mxCell id="j5QbGHPDWoWdgnvnqhMC-32" value="" style="shape=partialRectangle;connectable=0;fillColor=none;top=0;left=0;bottom=0;right=0;editable=1;overflow=hidden;whiteSpace=wrap;html=1;" parent="j5QbGHPDWoWdgnvnqhMC-31" vertex="1">
          <mxGeometry width="30" height="30" as="geometry">
            <mxRectangle width="30" height="30" as="alternateBounds" />
          </mxGeometry>
        </mxCell>
        <mxCell id="j5QbGHPDWoWdgnvnqhMC-33" value="estoque_disponivel INT NOT NULL" style="shape=partialRectangle;connectable=0;fillColor=none;top=0;left=0;bottom=0;right=0;align=left;spacingLeft=6;overflow=hidden;whiteSpace=wrap;html=1;" parent="j5QbGHPDWoWdgnvnqhMC-31" vertex="1">
          <mxGeometry x="30" width="230" height="30" as="geometry">
            <mxRectangle width="230" height="30" as="alternateBounds" />
          </mxGeometry>
        </mxCell>
        <mxCell id="j5QbGHPDWoWdgnvnqhMC-34" value="" style="shape=tableRow;horizontal=0;startSize=0;swimlaneHead=0;swimlaneBody=0;fillColor=none;collapsible=0;dropTarget=0;points=[[0,0.5],[1,0.5]];portConstraint=eastwest;top=0;left=0;right=0;bottom=0;" parent="j5QbGHPDWoWdgnvnqhMC-18" vertex="1">
          <mxGeometry y="180" width="260" height="30" as="geometry" />
        </mxCell>
        <mxCell id="j5QbGHPDWoWdgnvnqhMC-35" value="" style="shape=partialRectangle;connectable=0;fillColor=none;top=0;left=0;bottom=0;right=0;editable=1;overflow=hidden;whiteSpace=wrap;html=1;" parent="j5QbGHPDWoWdgnvnqhMC-34" vertex="1">
          <mxGeometry width="30" height="30" as="geometry">
            <mxRectangle width="30" height="30" as="alternateBounds" />
          </mxGeometry>
        </mxCell>
        <mxCell id="j5QbGHPDWoWdgnvnqhMC-36" value="imagem_url TEXT NOT NULL&amp;nbsp;" style="shape=partialRectangle;connectable=0;fillColor=none;top=0;left=0;bottom=0;right=0;align=left;spacingLeft=6;overflow=hidden;whiteSpace=wrap;html=1;" parent="j5QbGHPDWoWdgnvnqhMC-34" vertex="1">
          <mxGeometry x="30" width="230" height="30" as="geometry">
            <mxRectangle width="230" height="30" as="alternateBounds" />
          </mxGeometry>
        </mxCell>
        <mxCell id="j5QbGHPDWoWdgnvnqhMC-37" value="Item_do_produto" style="shape=table;startSize=30;container=1;collapsible=1;childLayout=tableLayout;fixedRows=1;rowLines=0;fontStyle=1;align=center;resizeLast=1;html=1;" parent="j5QbGHPDWoWdgnvnqhMC-1" vertex="1">
          <mxGeometry x="840" y="231" width="220" height="150" as="geometry" />
        </mxCell>
        <mxCell id="j5QbGHPDWoWdgnvnqhMC-38" value="" style="shape=tableRow;horizontal=0;startSize=0;swimlaneHead=0;swimlaneBody=0;fillColor=none;collapsible=0;dropTarget=0;points=[[0,0.5],[1,0.5]];portConstraint=eastwest;top=0;left=0;right=0;bottom=1;" parent="j5QbGHPDWoWdgnvnqhMC-37" vertex="1">
          <mxGeometry y="30" width="220" height="30" as="geometry" />
        </mxCell>
        <mxCell id="j5QbGHPDWoWdgnvnqhMC-39" value="PK" style="shape=partialRectangle;connectable=0;fillColor=none;top=0;left=0;bottom=0;right=0;fontStyle=1;overflow=hidden;whiteSpace=wrap;html=1;" parent="j5QbGHPDWoWdgnvnqhMC-38" vertex="1">
          <mxGeometry width="30" height="30" as="geometry">
            <mxRectangle width="30" height="30" as="alternateBounds" />
          </mxGeometry>
        </mxCell>
        <mxCell id="j5QbGHPDWoWdgnvnqhMC-40" value="id_item_do_produto INT" style="shape=partialRectangle;connectable=0;fillColor=none;top=0;left=0;bottom=0;right=0;align=left;spacingLeft=6;fontStyle=5;overflow=hidden;whiteSpace=wrap;html=1;" parent="j5QbGHPDWoWdgnvnqhMC-38" vertex="1">
          <mxGeometry x="30" width="190" height="30" as="geometry">
            <mxRectangle width="190" height="30" as="alternateBounds" />
          </mxGeometry>
        </mxCell>
        <mxCell id="j5QbGHPDWoWdgnvnqhMC-41" value="" style="shape=tableRow;horizontal=0;startSize=0;swimlaneHead=0;swimlaneBody=0;fillColor=none;collapsible=0;dropTarget=0;points=[[0,0.5],[1,0.5]];portConstraint=eastwest;top=0;left=0;right=0;bottom=0;" parent="j5QbGHPDWoWdgnvnqhMC-37" vertex="1">
          <mxGeometry y="60" width="220" height="30" as="geometry" />
        </mxCell>
        <mxCell id="j5QbGHPDWoWdgnvnqhMC-42" value="" style="shape=partialRectangle;connectable=0;fillColor=none;top=0;left=0;bottom=0;right=0;editable=1;overflow=hidden;whiteSpace=wrap;html=1;" parent="j5QbGHPDWoWdgnvnqhMC-41" vertex="1">
          <mxGeometry width="30" height="30" as="geometry">
            <mxRectangle width="30" height="30" as="alternateBounds" />
          </mxGeometry>
        </mxCell>
        <mxCell id="j5QbGHPDWoWdgnvnqhMC-43" value="produto_id INT NOT NULL" style="shape=partialRectangle;connectable=0;fillColor=none;top=0;left=0;bottom=0;right=0;align=left;spacingLeft=6;overflow=hidden;whiteSpace=wrap;html=1;" parent="j5QbGHPDWoWdgnvnqhMC-41" vertex="1">
          <mxGeometry x="30" width="190" height="30" as="geometry">
            <mxRectangle width="190" height="30" as="alternateBounds" />
          </mxGeometry>
        </mxCell>
        <mxCell id="j5QbGHPDWoWdgnvnqhMC-44" value="" style="shape=tableRow;horizontal=0;startSize=0;swimlaneHead=0;swimlaneBody=0;fillColor=none;collapsible=0;dropTarget=0;points=[[0,0.5],[1,0.5]];portConstraint=eastwest;top=0;left=0;right=0;bottom=0;" parent="j5QbGHPDWoWdgnvnqhMC-37" vertex="1">
          <mxGeometry y="90" width="220" height="30" as="geometry" />
        </mxCell>
        <mxCell id="j5QbGHPDWoWdgnvnqhMC-45" value="" style="shape=partialRectangle;connectable=0;fillColor=none;top=0;left=0;bottom=0;right=0;editable=1;overflow=hidden;whiteSpace=wrap;html=1;" parent="j5QbGHPDWoWdgnvnqhMC-44" vertex="1">
          <mxGeometry width="30" height="30" as="geometry">
            <mxRectangle width="30" height="30" as="alternateBounds" />
          </mxGeometry>
        </mxCell>
        <mxCell id="j5QbGHPDWoWdgnvnqhMC-46" value="pedido_id INT NOT NULL" style="shape=partialRectangle;connectable=0;fillColor=none;top=0;left=0;bottom=0;right=0;align=left;spacingLeft=6;overflow=hidden;whiteSpace=wrap;html=1;" parent="j5QbGHPDWoWdgnvnqhMC-44" vertex="1">
          <mxGeometry x="30" width="190" height="30" as="geometry">
            <mxRectangle width="190" height="30" as="alternateBounds" />
          </mxGeometry>
        </mxCell>
        <mxCell id="j5QbGHPDWoWdgnvnqhMC-47" value="" style="shape=tableRow;horizontal=0;startSize=0;swimlaneHead=0;swimlaneBody=0;fillColor=none;collapsible=0;dropTarget=0;points=[[0,0.5],[1,0.5]];portConstraint=eastwest;top=0;left=0;right=0;bottom=0;" parent="j5QbGHPDWoWdgnvnqhMC-37" vertex="1">
          <mxGeometry y="120" width="220" height="30" as="geometry" />
        </mxCell>
        <mxCell id="j5QbGHPDWoWdgnvnqhMC-48" value="" style="shape=partialRectangle;connectable=0;fillColor=none;top=0;left=0;bottom=0;right=0;editable=1;overflow=hidden;whiteSpace=wrap;html=1;" parent="j5QbGHPDWoWdgnvnqhMC-47" vertex="1">
          <mxGeometry width="30" height="30" as="geometry">
            <mxRectangle width="30" height="30" as="alternateBounds" />
          </mxGeometry>
        </mxCell>
        <mxCell id="j5QbGHPDWoWdgnvnqhMC-49" value="quantidade INT NOT NULL" style="shape=partialRectangle;connectable=0;fillColor=none;top=0;left=0;bottom=0;right=0;align=left;spacingLeft=6;overflow=hidden;whiteSpace=wrap;html=1;" parent="j5QbGHPDWoWdgnvnqhMC-47" vertex="1">
          <mxGeometry x="30" width="190" height="30" as="geometry">
            <mxRectangle width="190" height="30" as="alternateBounds" />
          </mxGeometry>
        </mxCell>
        <mxCell id="j5QbGHPDWoWdgnvnqhMC-50" value="Pagamento" style="shape=table;startSize=30;container=1;collapsible=1;childLayout=tableLayout;fixedRows=1;rowLines=0;fontStyle=1;align=center;resizeLast=1;html=1;" parent="j5QbGHPDWoWdgnvnqhMC-1" vertex="1">
          <mxGeometry x="760" y="477" width="270" height="180" as="geometry" />
        </mxCell>
        <mxCell id="j5QbGHPDWoWdgnvnqhMC-51" value="" style="shape=tableRow;horizontal=0;startSize=0;swimlaneHead=0;swimlaneBody=0;fillColor=none;collapsible=0;dropTarget=0;points=[[0,0.5],[1,0.5]];portConstraint=eastwest;top=0;left=0;right=0;bottom=1;" parent="j5QbGHPDWoWdgnvnqhMC-50" vertex="1">
          <mxGeometry y="30" width="270" height="30" as="geometry" />
        </mxCell>
        <mxCell id="j5QbGHPDWoWdgnvnqhMC-52" value="PK" style="shape=partialRectangle;connectable=0;fillColor=none;top=0;left=0;bottom=0;right=0;fontStyle=1;overflow=hidden;whiteSpace=wrap;html=1;" parent="j5QbGHPDWoWdgnvnqhMC-51" vertex="1">
          <mxGeometry width="30" height="30" as="geometry">
            <mxRectangle width="30" height="30" as="alternateBounds" />
          </mxGeometry>
        </mxCell>
        <mxCell id="j5QbGHPDWoWdgnvnqhMC-53" value="id_pagamento INT" style="shape=partialRectangle;connectable=0;fillColor=none;top=0;left=0;bottom=0;right=0;align=left;spacingLeft=6;fontStyle=5;overflow=hidden;whiteSpace=wrap;html=1;" parent="j5QbGHPDWoWdgnvnqhMC-51" vertex="1">
          <mxGeometry x="30" width="240" height="30" as="geometry">
            <mxRectangle width="240" height="30" as="alternateBounds" />
          </mxGeometry>
        </mxCell>
        <mxCell id="j5QbGHPDWoWdgnvnqhMC-54" value="" style="shape=tableRow;horizontal=0;startSize=0;swimlaneHead=0;swimlaneBody=0;fillColor=none;collapsible=0;dropTarget=0;points=[[0,0.5],[1,0.5]];portConstraint=eastwest;top=0;left=0;right=0;bottom=0;" parent="j5QbGHPDWoWdgnvnqhMC-50" vertex="1">
          <mxGeometry y="60" width="270" height="30" as="geometry" />
        </mxCell>
        <mxCell id="j5QbGHPDWoWdgnvnqhMC-55" value="FK" style="shape=partialRectangle;connectable=0;fillColor=none;top=0;left=0;bottom=0;right=0;editable=1;overflow=hidden;whiteSpace=wrap;html=1;" parent="j5QbGHPDWoWdgnvnqhMC-54" vertex="1">
          <mxGeometry width="30" height="30" as="geometry">
            <mxRectangle width="30" height="30" as="alternateBounds" />
          </mxGeometry>
        </mxCell>
        <mxCell id="j5QbGHPDWoWdgnvnqhMC-56" value="pedido_id INT NOT NULL" style="shape=partialRectangle;connectable=0;fillColor=none;top=0;left=0;bottom=0;right=0;align=left;spacingLeft=6;overflow=hidden;whiteSpace=wrap;html=1;" parent="j5QbGHPDWoWdgnvnqhMC-54" vertex="1">
          <mxGeometry x="30" width="240" height="30" as="geometry">
            <mxRectangle width="240" height="30" as="alternateBounds" />
          </mxGeometry>
        </mxCell>
        <mxCell id="j5QbGHPDWoWdgnvnqhMC-57" value="" style="shape=tableRow;horizontal=0;startSize=0;swimlaneHead=0;swimlaneBody=0;fillColor=none;collapsible=0;dropTarget=0;points=[[0,0.5],[1,0.5]];portConstraint=eastwest;top=0;left=0;right=0;bottom=0;" parent="j5QbGHPDWoWdgnvnqhMC-50" vertex="1">
          <mxGeometry y="90" width="270" height="30" as="geometry" />
        </mxCell>
        <mxCell id="j5QbGHPDWoWdgnvnqhMC-58" value="" style="shape=partialRectangle;connectable=0;fillColor=none;top=0;left=0;bottom=0;right=0;editable=1;overflow=hidden;whiteSpace=wrap;html=1;" parent="j5QbGHPDWoWdgnvnqhMC-57" vertex="1">
          <mxGeometry width="30" height="30" as="geometry">
            <mxRectangle width="30" height="30" as="alternateBounds" />
          </mxGeometry>
        </mxCell>
        <mxCell id="j5QbGHPDWoWdgnvnqhMC-59" value="forma_pagamento TEXT NOT NULL" style="shape=partialRectangle;connectable=0;fillColor=none;top=0;left=0;bottom=0;right=0;align=left;spacingLeft=6;overflow=hidden;whiteSpace=wrap;html=1;" parent="j5QbGHPDWoWdgnvnqhMC-57" vertex="1">
          <mxGeometry x="30" width="240" height="30" as="geometry">
            <mxRectangle width="240" height="30" as="alternateBounds" />
          </mxGeometry>
        </mxCell>
        <mxCell id="j5QbGHPDWoWdgnvnqhMC-60" value="" style="shape=tableRow;horizontal=0;startSize=0;swimlaneHead=0;swimlaneBody=0;fillColor=none;collapsible=0;dropTarget=0;points=[[0,0.5],[1,0.5]];portConstraint=eastwest;top=0;left=0;right=0;bottom=0;" parent="j5QbGHPDWoWdgnvnqhMC-50" vertex="1">
          <mxGeometry y="120" width="270" height="30" as="geometry" />
        </mxCell>
        <mxCell id="j5QbGHPDWoWdgnvnqhMC-61" value="" style="shape=partialRectangle;connectable=0;fillColor=none;top=0;left=0;bottom=0;right=0;editable=1;overflow=hidden;whiteSpace=wrap;html=1;" parent="j5QbGHPDWoWdgnvnqhMC-60" vertex="1">
          <mxGeometry width="30" height="30" as="geometry">
            <mxRectangle width="30" height="30" as="alternateBounds" />
          </mxGeometry>
        </mxCell>
        <mxCell id="j5QbGHPDWoWdgnvnqhMC-62" value="status TEXT NOT NULL" style="shape=partialRectangle;connectable=0;fillColor=none;top=0;left=0;bottom=0;right=0;align=left;spacingLeft=6;overflow=hidden;whiteSpace=wrap;html=1;" parent="j5QbGHPDWoWdgnvnqhMC-60" vertex="1">
          <mxGeometry x="30" width="240" height="30" as="geometry">
            <mxRectangle width="240" height="30" as="alternateBounds" />
          </mxGeometry>
        </mxCell>
        <mxCell id="j5QbGHPDWoWdgnvnqhMC-63" value="" style="shape=tableRow;horizontal=0;startSize=0;swimlaneHead=0;swimlaneBody=0;fillColor=none;collapsible=0;dropTarget=0;points=[[0,0.5],[1,0.5]];portConstraint=eastwest;top=0;left=0;right=0;bottom=0;" parent="j5QbGHPDWoWdgnvnqhMC-50" vertex="1">
          <mxGeometry y="150" width="270" height="30" as="geometry" />
        </mxCell>
        <mxCell id="j5QbGHPDWoWdgnvnqhMC-64" value="" style="shape=partialRectangle;connectable=0;fillColor=none;top=0;left=0;bottom=0;right=0;editable=1;overflow=hidden;whiteSpace=wrap;html=1;" parent="j5QbGHPDWoWdgnvnqhMC-63" vertex="1">
          <mxGeometry width="30" height="30" as="geometry">
            <mxRectangle width="30" height="30" as="alternateBounds" />
          </mxGeometry>
        </mxCell>
        <mxCell id="j5QbGHPDWoWdgnvnqhMC-65" value="data_pagamento TIMESTAMP WITH TIMES ZONE" style="shape=partialRectangle;connectable=0;fillColor=none;top=0;left=0;bottom=0;right=0;align=left;spacingLeft=6;overflow=hidden;whiteSpace=wrap;html=1;" parent="j5QbGHPDWoWdgnvnqhMC-63" vertex="1">
          <mxGeometry x="30" width="240" height="30" as="geometry">
            <mxRectangle width="240" height="30" as="alternateBounds" />
          </mxGeometry>
        </mxCell>
        <mxCell id="j5QbGHPDWoWdgnvnqhMC-66" value="Cliente" style="shape=table;startSize=30;container=1;collapsible=1;childLayout=tableLayout;fixedRows=1;rowLines=0;fontStyle=1;align=center;resizeLast=1;html=1;" parent="j5QbGHPDWoWdgnvnqhMC-1" vertex="1">
          <mxGeometry x="120" y="377" width="250" height="210" as="geometry" />
        </mxCell>
        <mxCell id="j5QbGHPDWoWdgnvnqhMC-67" value="" style="shape=tableRow;horizontal=0;startSize=0;swimlaneHead=0;swimlaneBody=0;fillColor=none;collapsible=0;dropTarget=0;points=[[0,0.5],[1,0.5]];portConstraint=eastwest;top=0;left=0;right=0;bottom=1;" parent="j5QbGHPDWoWdgnvnqhMC-66" vertex="1">
          <mxGeometry y="30" width="250" height="30" as="geometry" />
        </mxCell>
        <mxCell id="j5QbGHPDWoWdgnvnqhMC-68" value="PK" style="shape=partialRectangle;connectable=0;fillColor=none;top=0;left=0;bottom=0;right=0;fontStyle=1;overflow=hidden;whiteSpace=wrap;html=1;" parent="j5QbGHPDWoWdgnvnqhMC-67" vertex="1">
          <mxGeometry width="30" height="30" as="geometry">
            <mxRectangle width="30" height="30" as="alternateBounds" />
          </mxGeometry>
        </mxCell>
        <mxCell id="j5QbGHPDWoWdgnvnqhMC-69" value="id_cliente INT" style="shape=partialRectangle;connectable=0;fillColor=none;top=0;left=0;bottom=0;right=0;align=left;spacingLeft=6;fontStyle=5;overflow=hidden;whiteSpace=wrap;html=1;" parent="j5QbGHPDWoWdgnvnqhMC-67" vertex="1">
          <mxGeometry x="30" width="220" height="30" as="geometry">
            <mxRectangle width="220" height="30" as="alternateBounds" />
          </mxGeometry>
        </mxCell>
        <mxCell id="j5QbGHPDWoWdgnvnqhMC-70" value="" style="shape=tableRow;horizontal=0;startSize=0;swimlaneHead=0;swimlaneBody=0;fillColor=none;collapsible=0;dropTarget=0;points=[[0,0.5],[1,0.5]];portConstraint=eastwest;top=0;left=0;right=0;bottom=0;" parent="j5QbGHPDWoWdgnvnqhMC-66" vertex="1">
          <mxGeometry y="60" width="250" height="30" as="geometry" />
        </mxCell>
        <mxCell id="j5QbGHPDWoWdgnvnqhMC-71" value="" style="shape=partialRectangle;connectable=0;fillColor=none;top=0;left=0;bottom=0;right=0;editable=1;overflow=hidden;whiteSpace=wrap;html=1;" parent="j5QbGHPDWoWdgnvnqhMC-70" vertex="1">
          <mxGeometry width="30" height="30" as="geometry">
            <mxRectangle width="30" height="30" as="alternateBounds" />
          </mxGeometry>
        </mxCell>
        <mxCell id="j5QbGHPDWoWdgnvnqhMC-72" value="nome_completo TEXT NOT NULL" style="shape=partialRectangle;connectable=0;fillColor=none;top=0;left=0;bottom=0;right=0;align=left;spacingLeft=6;overflow=hidden;whiteSpace=wrap;html=1;" parent="j5QbGHPDWoWdgnvnqhMC-70" vertex="1">
          <mxGeometry x="30" width="220" height="30" as="geometry">
            <mxRectangle width="220" height="30" as="alternateBounds" />
          </mxGeometry>
        </mxCell>
        <mxCell id="j5QbGHPDWoWdgnvnqhMC-73" value="" style="shape=tableRow;horizontal=0;startSize=0;swimlaneHead=0;swimlaneBody=0;fillColor=none;collapsible=0;dropTarget=0;points=[[0,0.5],[1,0.5]];portConstraint=eastwest;top=0;left=0;right=0;bottom=0;" parent="j5QbGHPDWoWdgnvnqhMC-66" vertex="1">
          <mxGeometry y="90" width="250" height="30" as="geometry" />
        </mxCell>
        <mxCell id="j5QbGHPDWoWdgnvnqhMC-74" value="" style="shape=partialRectangle;connectable=0;fillColor=none;top=0;left=0;bottom=0;right=0;editable=1;overflow=hidden;whiteSpace=wrap;html=1;" parent="j5QbGHPDWoWdgnvnqhMC-73" vertex="1">
          <mxGeometry width="30" height="30" as="geometry">
            <mxRectangle width="30" height="30" as="alternateBounds" />
          </mxGeometry>
        </mxCell>
        <mxCell id="j5QbGHPDWoWdgnvnqhMC-75" value="email TEXT NOT NULL" style="shape=partialRectangle;connectable=0;fillColor=none;top=0;left=0;bottom=0;right=0;align=left;spacingLeft=6;overflow=hidden;whiteSpace=wrap;html=1;" parent="j5QbGHPDWoWdgnvnqhMC-73" vertex="1">
          <mxGeometry x="30" width="220" height="30" as="geometry">
            <mxRectangle width="220" height="30" as="alternateBounds" />
          </mxGeometry>
        </mxCell>
        <mxCell id="j5QbGHPDWoWdgnvnqhMC-76" value="" style="shape=tableRow;horizontal=0;startSize=0;swimlaneHead=0;swimlaneBody=0;fillColor=none;collapsible=0;dropTarget=0;points=[[0,0.5],[1,0.5]];portConstraint=eastwest;top=0;left=0;right=0;bottom=0;" parent="j5QbGHPDWoWdgnvnqhMC-66" vertex="1">
          <mxGeometry y="120" width="250" height="30" as="geometry" />
        </mxCell>
        <mxCell id="j5QbGHPDWoWdgnvnqhMC-77" value="" style="shape=partialRectangle;connectable=0;fillColor=none;top=0;left=0;bottom=0;right=0;editable=1;overflow=hidden;whiteSpace=wrap;html=1;" parent="j5QbGHPDWoWdgnvnqhMC-76" vertex="1">
          <mxGeometry width="30" height="30" as="geometry">
            <mxRectangle width="30" height="30" as="alternateBounds" />
          </mxGeometry>
        </mxCell>
        <mxCell id="j5QbGHPDWoWdgnvnqhMC-78" value="senha TEXT NOT NULL" style="shape=partialRectangle;connectable=0;fillColor=none;top=0;left=0;bottom=0;right=0;align=left;spacingLeft=6;overflow=hidden;whiteSpace=wrap;html=1;" parent="j5QbGHPDWoWdgnvnqhMC-76" vertex="1">
          <mxGeometry x="30" width="220" height="30" as="geometry">
            <mxRectangle width="220" height="30" as="alternateBounds" />
          </mxGeometry>
        </mxCell>
        <mxCell id="j5QbGHPDWoWdgnvnqhMC-79" value="" style="shape=tableRow;horizontal=0;startSize=0;swimlaneHead=0;swimlaneBody=0;fillColor=none;collapsible=0;dropTarget=0;points=[[0,0.5],[1,0.5]];portConstraint=eastwest;top=0;left=0;right=0;bottom=0;" parent="j5QbGHPDWoWdgnvnqhMC-66" vertex="1">
          <mxGeometry y="150" width="250" height="30" as="geometry" />
        </mxCell>
        <mxCell id="j5QbGHPDWoWdgnvnqhMC-80" value="" style="shape=partialRectangle;connectable=0;fillColor=none;top=0;left=0;bottom=0;right=0;editable=1;overflow=hidden;whiteSpace=wrap;html=1;" parent="j5QbGHPDWoWdgnvnqhMC-79" vertex="1">
          <mxGeometry width="30" height="30" as="geometry">
            <mxRectangle width="30" height="30" as="alternateBounds" />
          </mxGeometry>
        </mxCell>
        <mxCell id="j5QbGHPDWoWdgnvnqhMC-81" value="telefone TEXT NOT NULL" style="shape=partialRectangle;connectable=0;fillColor=none;top=0;left=0;bottom=0;right=0;align=left;spacingLeft=6;overflow=hidden;whiteSpace=wrap;html=1;" parent="j5QbGHPDWoWdgnvnqhMC-79" vertex="1">
          <mxGeometry x="30" width="220" height="30" as="geometry">
            <mxRectangle width="220" height="30" as="alternateBounds" />
          </mxGeometry>
        </mxCell>
        <mxCell id="j5QbGHPDWoWdgnvnqhMC-82" value="" style="shape=tableRow;horizontal=0;startSize=0;swimlaneHead=0;swimlaneBody=0;fillColor=none;collapsible=0;dropTarget=0;points=[[0,0.5],[1,0.5]];portConstraint=eastwest;top=0;left=0;right=0;bottom=0;" parent="j5QbGHPDWoWdgnvnqhMC-66" vertex="1">
          <mxGeometry y="180" width="250" height="30" as="geometry" />
        </mxCell>
        <mxCell id="j5QbGHPDWoWdgnvnqhMC-83" value="" style="shape=partialRectangle;connectable=0;fillColor=none;top=0;left=0;bottom=0;right=0;editable=1;overflow=hidden;whiteSpace=wrap;html=1;" parent="j5QbGHPDWoWdgnvnqhMC-82" vertex="1">
          <mxGeometry width="30" height="30" as="geometry">
            <mxRectangle width="30" height="30" as="alternateBounds" />
          </mxGeometry>
        </mxCell>
        <mxCell id="j5QbGHPDWoWdgnvnqhMC-84" value="data_cadastro TIMESTAMP WITH TIMES ZONE" style="shape=partialRectangle;connectable=0;fillColor=none;top=0;left=0;bottom=0;right=0;align=left;spacingLeft=6;overflow=hidden;whiteSpace=wrap;html=1;" parent="j5QbGHPDWoWdgnvnqhMC-82" vertex="1">
          <mxGeometry x="30" width="220" height="30" as="geometry">
            <mxRectangle width="220" height="30" as="alternateBounds" />
          </mxGeometry>
        </mxCell>
        <mxCell id="j5QbGHPDWoWdgnvnqhMC-85" value="" style="edgeStyle=entityRelationEdgeStyle;fontSize=12;html=1;endArrow=ERmandOne;startArrow=ERmandOne;rounded=0;exitX=1;exitY=0.5;exitDx=0;exitDy=0;entryX=0;entryY=0.5;entryDx=0;entryDy=0;" parent="j5QbGHPDWoWdgnvnqhMC-1" source="j5QbGHPDWoWdgnvnqhMC-3" target="j5QbGHPDWoWdgnvnqhMC-54" edge="1">
          <mxGeometry width="100" height="100" relative="1" as="geometry">
            <mxPoint x="580" y="567" as="sourcePoint" />
            <mxPoint x="400" y="687" as="targetPoint" />
            <Array as="points">
              <mxPoint x="470" y="587" />
            </Array>
          </mxGeometry>
        </mxCell>
        <mxCell id="j5QbGHPDWoWdgnvnqhMC-86" value="" style="edgeStyle=entityRelationEdgeStyle;fontSize=12;html=1;endArrow=ERoneToMany;rounded=0;entryX=0;entryY=0.5;entryDx=0;entryDy=0;exitX=1;exitY=0.5;exitDx=0;exitDy=0;" parent="j5QbGHPDWoWdgnvnqhMC-1" source="j5QbGHPDWoWdgnvnqhMC-67" target="j5QbGHPDWoWdgnvnqhMC-6" edge="1">
          <mxGeometry width="100" height="100" relative="1" as="geometry">
            <mxPoint x="370" y="437" as="sourcePoint" />
            <mxPoint x="470" y="337" as="targetPoint" />
          </mxGeometry>
        </mxCell>
        <mxCell id="j5QbGHPDWoWdgnvnqhMC-87" value="" style="edgeStyle=entityRelationEdgeStyle;fontSize=12;html=1;endArrow=ERoneToMany;rounded=0;entryX=0;entryY=0.5;entryDx=0;entryDy=0;exitX=1;exitY=0.056;exitDx=0;exitDy=0;exitPerimeter=0;" parent="j5QbGHPDWoWdgnvnqhMC-1" source="j5QbGHPDWoWdgnvnqhMC-2" target="j5QbGHPDWoWdgnvnqhMC-44" edge="1">
          <mxGeometry width="100" height="100" relative="1" as="geometry">
            <mxPoint x="660" y="457" as="sourcePoint" />
            <mxPoint x="760" y="357" as="targetPoint" />
          </mxGeometry>
        </mxCell>
        <mxCell id="j5QbGHPDWoWdgnvnqhMC-88" value="" style="edgeStyle=entityRelationEdgeStyle;fontSize=12;html=1;endArrow=ERoneToMany;rounded=0;entryX=0;entryY=0.5;entryDx=0;entryDy=0;exitX=1;exitY=0.5;exitDx=0;exitDy=0;" parent="j5QbGHPDWoWdgnvnqhMC-1" source="j5QbGHPDWoWdgnvnqhMC-19" target="j5QbGHPDWoWdgnvnqhMC-41" edge="1">
          <mxGeometry width="100" height="100" relative="1" as="geometry">
            <mxPoint x="630" y="37" as="sourcePoint" />
            <mxPoint x="730" y="-63" as="targetPoint" />
          </mxGeometry>
        </mxCell>
        <mxCell id="7ELAN9hmqY96UEe1wRkC-41" value="FK" style="text;html=1;align=center;verticalAlign=middle;whiteSpace=wrap;rounded=0;" parent="j5QbGHPDWoWdgnvnqhMC-1" vertex="1">
          <mxGeometry x="840" y="321" width="30" height="30" as="geometry" />
        </mxCell>
        <mxCell id="7ELAN9hmqY96UEe1wRkC-42" value="FK" style="text;html=1;align=center;verticalAlign=middle;whiteSpace=wrap;rounded=0;" parent="j5QbGHPDWoWdgnvnqhMC-1" vertex="1">
          <mxGeometry x="840" y="291" width="30" height="30" as="geometry" />
        </mxCell>
        <mxCell id="7ELAN9hmqY96UEe1wRkC-43" value="FK" style="text;html=1;align=center;verticalAlign=middle;whiteSpace=wrap;rounded=0;" parent="j5QbGHPDWoWdgnvnqhMC-1" vertex="1">
          <mxGeometry x="440" y="507" width="30" height="30" as="geometry" />
        </mxCell>
      </root>
    </mxGraphModel>
  </diagram>
</mxfile>
